<?xml version="1.0" encoding="UTF-8" standalone="no"?><!DOCTYPE svg PUBLIC "-//W3C//DTD SVG 1.1//EN" "http://www.w3.org/Graphics/SVG/1.1/DTD/svg11.dtd"><svg width="100%" height="100%" viewBox="0 0 2292 2292" version="1.1" xmlns="http://www.w3.org/2000/svg" xmlns:xlink="http://www.w3.org/1999/xlink" xml:space="preserve" xmlns:serif="http://www.serif.com/" style="fill-rule:evenodd;clip-rule:evenodd;stroke-linejoin:round;stroke-miterlimit:2;"><g><path d="M1060.42,1497.92l-84.375,-0l-0,-70.763c-61.804,67.071 -132.988,100.604 -213.542,100.604c-80.554,0 -149.479,-29.258 -206.771,-87.77c-57.291,-58.517 -85.937,-128.325 -85.937,-209.426c-0,-81.099 28.82,-150.566 86.458,-208.399c57.637,-57.83 127.95,-86.746 210.938,-86.746c82.987,-0 152.604,33.191 208.854,99.579l-0,-99.579l84.375,-0l-0,562.5Zm-291.667,-49.204c27.8,-0 54.779,-4.776 80.467,-15.401c171.341,-70.849 173.746,-329.033 1.175,-400.241c-26.109,-10.771 -53.934,-15.571 -82.163,-15.525c-28.508,0.041 -55.921,4.854 -82.162,16.037c-171.767,73.221 -168.879,326.238 1.433,399.088c25.817,11.046 53.917,16.042 81.25,16.042Z" style="fill:#00aeef;fill-rule:nonzero;"/><path d="M1735.42,1497.92l-84.375,-0l-0,-70.717c-61.805,67.038 -133.159,100.558 -214.063,100.558c-80.904,0 -149.825,-29.071 -206.771,-87.22c-56.945,-58.146 -85.416,-127.925 -85.416,-209.334c-0,-81.404 28.82,-151.012 86.458,-208.816c57.638,-57.805 127.95,-86.709 210.938,-86.709c82.987,0 152.604,33.179 208.854,99.534l-0,-268.546l84.375,-0.017l-0,731.267Zm-291.667,-49.171c54.862,-0 103.821,-20.179 146.875,-60.542c43.054,-40.362 64.583,-91.496 64.583,-153.408c0,-61.909 -19.966,-113.558 -59.896,-154.946c-39.929,-41.387 -90.279,-62.079 -151.041,-62.079c-60.763,-0 -111.459,21.375 -152.084,64.133c-40.625,42.754 -60.937,93.038 -60.937,150.842c-0,57.804 20.833,108.262 62.5,151.354c41.667,43.1 91.667,64.646 150,64.646Z" style="fill:#00aeef;fill-rule:nonzero;"/><path d="M2072.69,931.212l-93.438,2.313l1.459,482.683c-0,13.8 2.191,22.175 6.57,25.134c4.379,2.958 15.325,4.437 32.838,4.437l52.546,0l0.025,80.204c-1.95,0.5 -61.692,-2.337 -79.938,-2.337c-35.029,-0 -60.937,-7.721 -77.721,-23.163c-16.783,-15.441 -25.179,-39.921 -25.179,-73.433l-1.458,-493.525l-111.017,-2.575l0.413,-70.704l110.737,-0l1.325,-93.596l90.859,0l-1.321,93.596l93.3,-0l-0,70.966Z" style="fill:#00aeef;fill-rule:nonzero;"/><path d="M1060.42,1497.92l-84.375,-0l-0,-70.763c-61.804,67.071 -132.988,100.604 -213.542,100.604c-80.554,0 -149.479,-29.258 -206.771,-87.77c-57.291,-58.517 -85.937,-128.325 -85.937,-209.426c-0,-81.099 28.82,-150.566 86.458,-208.399c57.637,-57.83 127.95,-86.746 210.938,-86.746c82.987,-0 152.604,33.191 208.854,99.579l-0,-99.579l84.375,-0l-0,562.5Zm-291.667,-49.204c27.8,-0 54.779,-4.776 80.467,-15.401c171.341,-70.849 173.746,-329.033 1.175,-400.241c-26.109,-10.771 -53.934,-15.571 -82.163,-15.525c-28.508,0.041 -55.921,4.854 -82.162,16.037c-171.767,73.221 -168.879,326.238 1.433,399.088c25.817,11.046 53.917,16.042 81.25,16.042Z" style="fill:#433e3c;fill-rule:nonzero;"/><path d="M1735.42,1497.92l-84.375,-0l-0,-70.717c-61.805,67.038 -133.159,100.558 -214.063,100.558c-80.904,0 -149.825,-29.071 -206.771,-87.22c-56.945,-58.146 -85.416,-127.925 -85.416,-209.334c-0,-81.404 28.82,-151.012 86.458,-208.816c57.638,-57.805 127.95,-86.709 210.938,-86.709c82.987,0 152.604,33.179 208.854,99.534l-0,-268.546l84.375,-0.017l-0,731.267Zm-291.667,-49.171c54.862,-0 103.821,-20.179 146.875,-60.542c43.054,-40.362 64.583,-91.496 64.583,-153.408c0,-61.909 -19.966,-113.558 -59.896,-154.946c-39.929,-41.387 -90.279,-62.079 -151.041,-62.079c-60.763,-0 -111.459,21.375 -152.084,64.133c-40.625,42.754 -60.937,93.038 -60.937,150.842c-0,57.804 20.833,108.262 62.5,151.354c41.667,43.1 91.667,64.646 150,64.646Z" style="fill:#433e3c;fill-rule:nonzero;"/><path d="M2072.69,931.212l-93.438,2.313l1.459,482.683c-0,13.8 2.191,22.175 6.57,25.134c4.379,2.958 15.325,4.437 32.838,4.437l52.546,0l0.025,80.204c-1.95,0.5 -61.692,-2.337 -79.938,-2.337c-35.029,-0 -60.937,-7.721 -77.721,-23.163c-16.783,-15.441 -25.179,-39.921 -25.179,-73.433l-1.458,-493.525l-111.017,-2.575l0.413,-70.704l110.737,-0l1.325,-93.596l90.859,0l-1.321,93.596l93.3,-0l-0,70.966Z" style="fill:#433e3c;fill-rule:nonzero;"/><path d="M607.142,841.542c-0,-2.713 -0.659,-5 -1.975,-6.863c-1.321,-1.858 -3.013,-3.429 -5.088,-4.704c-2.071,-1.275 -4.346,-2.338 -6.829,-3.187c-2.483,-0.85 -4.871,-1.621 -7.158,-2.309c-3.325,-1.012 -6.7,-2.225 -10.134,-3.641c-3.433,-1.417 -6.562,-3.159 -9.391,-5.226c-2.825,-2.062 -5.138,-4.504 -6.929,-7.316c-1.792,-2.813 -2.688,-6.121 -2.688,-9.929c-0,-3.804 0.896,-7.205 2.688,-10.2c1.791,-2.996 4.133,-5.525 7.029,-7.592c2.891,-2.062 6.171,-3.633 9.841,-4.704c3.671,-1.075 7.363,-1.609 11.075,-1.609c4.1,0 8.05,0.638 11.85,1.913c3.8,1.275 7.167,3.067 10.105,5.371c2.933,2.308 5.287,5.104 7.058,8.383c1.771,3.279 2.696,6.942 2.783,10.988l-12.304,-0c-0.346,-2.55 -1.012,-4.867 -2.008,-6.95c-0.992,-2.088 -2.309,-3.879 -3.95,-5.375c-1.642,-1.5 -3.592,-2.663 -5.859,-3.492c-2.27,-0.829 -4.829,-1.246 -7.675,-1.246c-2.291,0 -4.525,0.304 -6.704,0.913c-2.179,0.608 -4.121,1.516 -5.829,2.733c-1.704,1.213 -3.062,2.713 -4.079,4.492c-1.013,1.783 -1.521,3.846 -1.521,6.196c0.042,2.55 0.733,4.704 2.071,6.466c1.341,1.759 3.033,3.246 5.083,4.463c2.054,1.212 4.275,2.225 6.667,3.037c2.4,0.808 4.658,1.517 6.771,2.125c2.333,0.688 4.687,1.467 7.062,2.338c2.371,0.871 4.663,1.87 6.863,3.004c2.2,1.133 4.254,2.408 6.154,3.825c1.896,1.416 3.558,3.029 4.983,4.829c1.425,1.8 2.538,3.783 3.338,5.95c0.796,2.167 1.195,4.567 1.195,7.196c0,3.967 -0.937,7.429 -2.816,10.383c-1.879,2.959 -4.304,5.417 -7.283,7.379c-2.98,1.963 -6.351,3.442 -10.105,4.434c-3.754,0.991 -7.512,1.487 -11.266,1.487c-4.188,0 -8.292,-0.608 -12.304,-1.821c-4.017,-1.216 -7.613,-2.966 -10.784,-5.254c-3.175,-2.287 -5.754,-5.079 -7.737,-8.379c-1.988,-3.3 -3.046,-7.054 -3.175,-11.263l12.237,0c0.392,2.751 1.188,5.192 2.4,7.317c1.209,2.125 2.763,3.925 4.663,5.404c1.895,1.475 4.087,2.592 6.57,3.338c2.48,0.75 5.192,1.125 8.13,1.125c2.325,-0 4.629,-0.275 6.896,-0.821c2.266,-0.546 4.283,-1.396 6.054,-2.55c1.77,-1.154 3.216,-2.612 4.337,-4.371c1.125,-1.762 1.688,-3.858 1.688,-6.287Z" style="fill:#636162;fill-rule:nonzero;"/><path d="M627.383,830.429c0,-4.733 0.734,-9.137 2.204,-13.204c1.467,-4.071 3.571,-7.604 6.313,-10.6c2.742,-2.996 6.075,-5.354 10.004,-7.071c3.929,-1.721 8.354,-2.583 13.275,-2.583c4.967,-0 9.425,0.862 13.375,2.583c3.95,1.717 7.296,4.075 10.038,7.071c2.741,2.996 4.846,6.529 6.312,10.6c1.471,4.067 2.204,8.471 2.204,13.204l0,1.338c0,4.737 -0.733,9.129 -2.204,13.175c-1.466,4.05 -3.571,7.57 -6.312,10.566c-2.742,2.996 -6.079,5.346 -10.004,7.046c-3.93,1.7 -8.355,2.55 -13.28,2.55c-4.962,0 -9.42,-0.85 -13.371,-2.55c-3.95,-1.7 -7.295,-4.05 -10.037,-7.046c-2.742,-2.996 -4.846,-6.516 -6.313,-10.566c-1.47,-4.046 -2.204,-8.438 -2.204,-13.175l0,-1.338Zm11.98,1.338c-0,3.237 0.412,6.325 1.233,9.258c0.821,2.937 2.058,5.517 3.721,7.746c1.662,2.225 3.746,3.987 6.25,5.283c2.504,1.292 5.42,1.942 8.741,1.942c3.284,-0 6.167,-0.65 8.646,-1.942c2.483,-1.296 4.554,-3.058 6.217,-5.283c1.662,-2.229 2.904,-4.809 3.725,-7.746c0.821,-2.933 1.229,-6.021 1.229,-9.258l0,-1.338c0,-3.196 -0.421,-6.262 -1.263,-9.2c-0.841,-2.933 -2.091,-5.512 -3.754,-7.742c-1.662,-2.224 -3.733,-3.995 -6.216,-5.312c-2.484,-1.317 -5.388,-1.975 -8.713,-1.975c-3.325,0 -6.217,0.658 -8.675,1.975c-2.462,1.317 -4.525,3.088 -6.187,5.312c-1.663,2.23 -2.9,4.809 -3.721,7.742c-0.821,2.938 -1.233,6.004 -1.233,9.2l-0,1.338Z" style="fill:#636162;fill-rule:nonzero;"/><path d="M721.583,863.892l0,-57.021l-19.3,-0l0,-8.683l19.3,-0l0,-4.617c0,-4.208 0.659,-7.904 1.975,-11.084c1.317,-3.174 3.171,-5.837 5.571,-7.983c2.396,-2.146 5.275,-3.766 8.642,-4.858c3.371,-1.092 7.125,-1.642 11.271,-1.642c2.85,0 5.621,0.225 8.32,0.671c2.7,0.446 5.471,1.013 8.321,1.7l-1.425,9.292c-1.771,-0.567 -3.829,-1.063 -6.183,-1.488c-2.354,-0.425 -4.867,-0.637 -7.546,-0.637c-5.612,0.037 -9.833,1.375 -12.658,4.004c-2.829,2.633 -4.242,6.641 -4.242,12.025l0,4.617l27.004,-0l0,8.683l-27.004,-0l0,57.021l-12.046,-0Z" style="fill:#636162;fill-rule:nonzero;"/><path d="M805.096,782.275l-0,15.913l26.683,-0l0,8.683l-26.683,-0l-0,35.704c-0,2.55 0.346,4.654 1.037,6.317c0.692,1.658 1.642,2.983 2.85,3.975c1.209,0.991 2.6,1.691 4.175,2.095c1.575,0.405 3.25,0.609 5.021,0.609c1.292,-0 2.633,-0.071 4.013,-0.213c1.383,-0.141 2.733,-0.312 4.05,-0.516c1.316,-0.204 2.545,-0.417 3.691,-0.638c1.142,-0.221 2.084,-0.417 2.817,-0.575l1.683,7.954c-0.996,0.567 -2.204,1.063 -3.629,1.488c-1.425,0.425 -2.979,0.787 -4.662,1.092c-1.684,0.304 -3.463,0.537 -5.342,0.7c-1.879,0.162 -3.746,0.241 -5.6,0.241c-3.108,0 -6.012,-0.417 -8.712,-1.246c-2.696,-0.829 -5.038,-2.145 -7.025,-3.946c-1.988,-1.799 -3.551,-4.129 -4.696,-6.983c-1.142,-2.854 -1.717,-6.304 -1.717,-10.354l0,-35.704l-18.392,-0l0,-8.683l18.392,-0l0,-15.913l12.046,0Z" style="fill:#636162;fill-rule:nonzero;"/><path d="M860.308,840.088l1.425,9.412l1.75,-9.412l11.205,-41.9l7.704,-0l11.141,41.9l1.875,10.32l1.75,-10.32l7.771,-41.9l10.621,-0l-14.896,65.704l-9.454,-0l-10.946,-40.263l-1.812,-10.2l-1.746,10.2l-10.817,40.263l-9.454,-0l-14.896,-65.704l10.621,-0l8.158,41.9Z" style="fill:#636162;fill-rule:nonzero;"/><path d="M968.692,863.892c-0.475,-0.855 -0.854,-1.917 -1.134,-3.192c-0.279,-1.275 -0.487,-2.6 -0.616,-3.975c-1.209,1.133 -2.559,2.204 -4.046,3.217c-1.492,1.012 -3.129,1.904 -4.921,2.67c-1.792,0.771 -3.704,1.38 -5.733,1.825c-2.03,0.446 -4.188,0.667 -6.475,0.667c-3.713,0 -7.071,-0.504 -10.071,-1.516c-3,-1.013 -5.546,-2.38 -7.642,-4.101c-2.091,-1.72 -3.712,-3.766 -4.854,-6.133c-1.146,-2.367 -1.717,-4.929 -1.717,-7.683c0,-3.6 0.767,-6.758 2.296,-9.471c1.533,-2.712 3.704,-4.971 6.508,-6.771c2.809,-1.8 6.188,-3.15 10.138,-4.037c3.95,-0.892 8.362,-1.338 13.242,-1.338l13.083,0l0,-5.162c0,-1.984 -0.392,-3.763 -1.167,-5.342c-0.779,-1.579 -1.879,-2.925 -3.304,-4.037c-1.425,-1.117 -3.162,-1.975 -5.212,-2.584c-2.05,-0.604 -4.35,-0.908 -6.896,-0.908c-2.375,-0 -4.5,0.283 -6.379,0.85c-1.879,0.567 -3.467,1.312 -4.759,2.246c-1.295,0.929 -2.3,2.033 -3.012,3.308c-0.713,1.275 -1.071,2.6 -1.071,3.979l-12.042,0c0.042,-2.387 0.7,-4.737 1.975,-7.046c1.271,-2.308 3.109,-4.383 5.504,-6.225c2.396,-1.841 5.309,-3.329 8.742,-4.462c3.433,-1.134 7.329,-1.7 11.688,-1.7c3.975,-0 7.662,0.454 11.075,1.366c3.412,0.913 6.358,2.288 8.841,4.13c2.479,1.841 4.434,4.141 5.859,6.891c1.425,2.754 2.137,5.971 2.137,9.655l0,30.545c0,2.188 0.217,4.505 0.646,6.955c0.433,2.45 1.037,4.583 1.817,6.404l-0,0.975l-12.5,-0Zm-21.175,-8.563c2.329,0 4.508,-0.283 6.537,-0.85c2.029,-0.567 3.875,-1.316 5.538,-2.25c1.662,-0.929 3.1,-1.991 4.308,-3.187c1.208,-1.192 2.158,-2.438 2.85,-3.734l0,-13.3l-11.142,0c-6.991,0 -12.433,0.971 -16.316,2.917c-3.888,1.942 -5.829,5 -5.829,9.167c-0,1.62 0.291,3.12 0.874,4.495c0.584,1.375 1.455,2.559 2.621,3.551c1.167,0.995 2.634,1.774 4.405,2.341c1.77,0.567 3.82,0.85 6.154,0.85Z" style="fill:#636162;fill-rule:nonzero;"/><path d="M1041.52,796.971c1.121,-0 2.287,0.029 3.496,0.091c1.208,0.063 2.362,0.163 3.466,0.305c1.1,0.141 2.113,0.312 3.042,0.516c0.929,0.2 1.696,0.425 2.3,0.667l-1.621,10.992c-2.329,-0.488 -4.542,-0.842 -6.637,-1.063c-2.092,-0.225 -4.284,-0.333 -6.571,-0.333c-5.613,-0 -10.158,1.191 -13.633,3.583c-3.475,2.388 -6.034,5.725 -7.676,10.017l0,42.146l-12.045,-0l-0,-65.704l11.4,-0l0.583,10.441c2.85,-3.6 6.271,-6.446 10.262,-8.529c3.996,-2.088 8.538,-3.129 13.634,-3.129Z" style="fill:#636162;fill-rule:nonzero;"/><path d="M1099.52,865.104c-4.921,0 -9.442,-0.787 -13.567,-2.366c-4.121,-1.58 -7.65,-3.788 -10.587,-6.621c-2.934,-2.834 -5.226,-6.192 -6.863,-10.08c-1.642,-3.887 -2.463,-8.116 -2.463,-12.691l0,-2.55c0,-5.304 0.909,-10.05 2.721,-14.242c1.813,-4.187 4.221,-7.733 7.221,-10.625c3,-2.896 6.408,-5.112 10.229,-6.65c3.821,-1.537 7.742,-2.308 11.755,-2.308c5.054,-0 9.466,0.821 13.245,2.458c3.775,1.642 6.917,3.908 9.417,6.804c2.508,2.892 4.375,6.305 5.604,10.23c1.234,3.929 1.85,8.179 1.85,12.754l0,5.037l-50.062,0c0.129,2.996 0.745,5.813 1.846,8.442c1.104,2.633 2.612,4.929 4.533,6.892c1.921,1.966 4.221,3.512 6.9,4.645c2.675,1.134 5.633,1.7 8.871,1.7c4.275,0 8.071,-0.808 11.395,-2.429c3.325,-1.616 6.088,-3.762 8.292,-6.433l7.317,5.341c-1.167,1.659 -2.629,3.25 -4.375,4.767c-1.746,1.517 -3.763,2.867 -6.05,4.038c-2.292,1.175 -4.879,2.116 -7.771,2.825c-2.896,0.708 -6.046,1.062 -9.458,1.062Zm-1.554,-58.904c-2.417,0 -4.705,0.417 -6.863,1.246c-2.158,0.829 -4.1,2.046 -5.829,3.646c-1.725,1.595 -3.183,3.562 -4.371,5.887c-1.188,2.329 -2.017,5.013 -2.492,8.046l37.688,-0l-0,-0.85c-0.129,-2.183 -0.571,-4.35 -1.325,-6.496c-0.758,-2.146 -1.871,-4.071 -3.338,-5.771c-1.466,-1.7 -3.312,-3.075 -5.537,-4.129c-2.221,-1.05 -4.867,-1.579 -7.933,-1.579Z" style="fill:#636162;fill-rule:nonzero;"/><path d="M1188.08,846.463c0,-1.338 -0.279,-2.542 -0.841,-3.613c-0.563,-1.075 -1.513,-2.054 -2.85,-2.946c-1.338,-0.891 -3.109,-1.712 -5.309,-2.458c-2.204,-0.75 -4.946,-1.429 -8.225,-2.038c-4.016,-0.766 -7.675,-1.7 -10.979,-2.791c-3.3,-1.092 -6.129,-2.4 -8.483,-3.917c-2.35,-1.517 -4.175,-3.3 -5.471,-5.346c-1.296,-2.041 -1.942,-4.421 -1.942,-7.133c0,-2.671 0.667,-5.171 2.009,-7.5c1.337,-2.325 3.212,-4.363 5.633,-6.1c2.417,-1.742 5.3,-3.121 8.646,-4.134c3.346,-1.008 7.025,-1.516 11.041,-1.516c4.317,-0 8.201,0.525 11.655,1.579c3.454,1.054 6.391,2.508 8.808,4.371c2.417,1.862 4.283,4.042 5.6,6.529c1.317,2.492 1.975,5.171 1.975,8.046l-11.979,-0c-0,-1.417 -0.388,-2.804 -1.167,-4.158c-0.775,-1.359 -1.854,-2.563 -3.237,-3.613c-1.38,-1.054 -3.055,-1.904 -5.017,-2.55c-1.967,-0.65 -4.179,-0.975 -6.638,-0.975c-2.55,0 -4.783,0.267 -6.704,0.792c-1.92,0.525 -3.52,1.233 -4.791,2.125c-1.275,0.891 -2.234,1.921 -2.884,3.095c-0.645,1.175 -0.971,2.388 -0.971,3.646c0,1.296 0.259,2.446 0.78,3.459c0.516,1.012 1.412,1.925 2.687,2.733c1.271,0.808 2.975,1.537 5.113,2.188c2.137,0.645 4.846,1.275 8.129,1.883c4.316,0.85 8.179,1.829 11.591,2.942c3.413,1.116 6.284,2.45 8.613,4.008c2.333,1.558 4.113,3.371 5.342,5.437c1.233,2.063 1.846,4.45 1.846,7.163c-0,2.916 -0.701,5.566 -2.105,7.958c-1.404,2.388 -3.354,4.429 -5.858,6.134c-2.504,1.7 -5.504,3.012 -9.004,3.945c-3.496,0.93 -7.317,1.396 -11.463,1.396c-4.75,0 -8.979,-0.596 -12.691,-1.791c-3.713,-1.196 -6.854,-2.771 -9.421,-4.738c-2.571,-1.962 -4.534,-4.237 -5.896,-6.829c-1.358,-2.592 -2.038,-5.283 -2.038,-8.079l11.98,-0c0.171,2.308 0.829,4.254 1.975,5.833c1.146,1.575 2.57,2.85 4.275,3.825c1.704,0.971 3.591,1.658 5.666,2.062c2.071,0.405 4.121,0.609 6.15,0.609c5.054,-0 9.046,-0.871 11.984,-2.613c2.933,-1.741 4.425,-4.045 4.466,-6.92Z" style="fill:#636162;fill-rule:nonzero;"/><path d="M1242.85,782.275l-0,15.913l26.679,-0l0,8.683l-26.679,-0l-0,35.704c-0,2.55 0.341,4.654 1.033,6.317c0.692,1.658 1.642,2.983 2.85,3.975c1.209,0.991 2.6,1.691 4.179,2.095c1.575,0.405 3.246,0.609 5.017,0.609c1.296,-0 2.633,-0.071 4.017,-0.213c1.379,-0.141 2.729,-0.312 4.045,-0.516c1.317,-0.204 2.546,-0.417 3.692,-0.638c1.146,-0.221 2.084,-0.417 2.817,-0.575l1.683,7.954c-0.992,0.567 -2.2,1.063 -3.625,1.488c-1.425,0.425 -2.979,0.787 -4.662,1.092c-1.684,0.304 -3.467,0.537 -5.342,0.7c-1.879,0.162 -3.746,0.241 -5.604,0.241c-3.109,0 -6.013,-0.417 -8.708,-1.246c-2.701,-0.829 -5.042,-2.145 -7.03,-3.946c-1.983,-1.799 -3.55,-4.129 -4.691,-6.983c-1.146,-2.854 -1.717,-6.304 -1.717,-10.354l-0,-35.704l-18.392,-0l0,-8.683l18.392,-0l-0,-15.913l12.046,0Z" style="fill:#636162;fill-rule:nonzero;"/><path d="M1332.9,854.842c-2.333,3.237 -5.246,5.758 -8.746,7.558c-3.496,1.804 -7.533,2.704 -12.108,2.704c-3.671,0 -6.996,-0.537 -9.975,-1.608c-2.975,-1.075 -5.525,-2.742 -7.642,-5.013c-2.112,-2.266 -3.741,-5.15 -4.887,-8.65c-1.146,-3.504 -1.717,-7.704 -1.717,-12.6l0,-39.045l11.979,-0l0,39.166c0,3.563 0.304,6.517 0.908,8.867c0.605,2.346 1.513,4.216 2.721,5.616c1.209,1.396 2.688,2.376 4.434,2.942c1.75,0.567 3.77,0.85 6.058,0.85c4.879,0 8.817,-0.929 11.817,-2.792c3,-1.862 5.233,-4.37 6.704,-7.529l-0,-47.12l12.046,-0l-0,65.704l-10.88,-0l-0.712,-9.05Z" style="fill:#636162;fill-rule:nonzero;"/><path d="M1358.13,830.492c0,-4.9 0.659,-9.404 1.975,-13.513c1.317,-4.108 3.196,-7.642 5.634,-10.596c2.437,-2.954 5.387,-5.262 8.841,-6.92c3.45,-1.663 7.317,-2.492 11.592,-2.492c4.187,-0 7.846,0.658 10.975,1.975c3.129,1.317 5.837,3.229 8.129,5.737l-0,-34.066l11.979,-0l0,93.275l-11.008,-0l-0.521,-6.925c-2.329,2.671 -5.112,4.695 -8.354,6.07c-3.238,1.38 -7.013,2.067 -11.329,2.067c-4.234,0 -8.063,-0.85 -11.496,-2.55c-3.434,-1.7 -6.359,-4.05 -8.775,-7.046c-2.417,-2.996 -4.296,-6.525 -5.633,-10.595c-1.342,-4.067 -2.009,-8.45 -2.009,-13.146l0,-1.275Zm11.979,1.275c0,3.2 0.367,6.233 1.1,9.108c0.738,2.875 1.871,5.404 3.4,7.592c1.534,2.183 3.488,3.916 5.863,5.191c2.375,1.275 5.225,1.913 8.546,1.913c2.029,-0 3.866,-0.225 5.508,-0.667c1.638,-0.446 3.129,-1.083 4.467,-1.912c1.337,-0.834 2.525,-1.825 3.562,-2.979c1.038,-1.155 1.942,-2.438 2.721,-3.855l-0,-30.483c-1.554,-2.671 -3.65,-4.867 -6.283,-6.588c-2.634,-1.72 -5.917,-2.583 -9.842,-2.583c-3.371,0 -6.25,0.65 -8.646,1.946c-2.396,1.296 -4.362,3.046 -5.896,5.25c-1.529,2.208 -2.662,4.758 -3.4,7.654c-0.733,2.892 -1.1,5.938 -1.1,9.138l0,1.275Z" style="fill:#636162;fill-rule:nonzero;"/><path d="M1435.23,798.188l35.813,-0l-0,55.987l22.862,-0l0,9.717l-58.675,-0l0,-9.717l23.833,-0l0,-46.213l-23.833,0l0,-9.774Zm22.279,-17.246c0,-1.863 0.592,-3.434 1.78,-4.709c1.187,-1.275 2.991,-1.912 5.408,-1.912c2.375,-0 4.167,0.637 5.375,1.912c1.208,1.275 1.812,2.846 1.812,4.709c0,1.821 -0.604,3.337 -1.812,4.554c-1.208,1.212 -3,1.821 -5.375,1.821c-2.417,-0 -4.221,-0.609 -5.408,-1.821c-1.188,-1.217 -1.78,-2.733 -1.78,-4.554Z" style="fill:#636162;fill-rule:nonzero;"/><path d="M1502.94,830.429c-0,-4.733 0.737,-9.137 2.204,-13.204c1.467,-4.071 3.571,-7.604 6.312,-10.6c2.742,-2.996 6.08,-5.354 10.009,-7.071c3.925,-1.721 8.35,-2.583 13.275,-2.583c4.962,-0 9.42,0.862 13.37,2.583c3.95,1.717 7.296,4.075 10.038,7.071c2.742,2.996 4.846,6.529 6.317,10.6c1.466,4.067 2.2,8.471 2.2,13.204l-0,1.338c-0,4.737 -0.734,9.129 -2.2,13.175c-1.471,4.05 -3.575,7.57 -6.317,10.566c-2.742,2.996 -6.075,5.346 -10.004,7.046c-3.929,1.7 -8.354,2.55 -13.275,2.55c-4.967,0 -9.425,-0.85 -13.375,-2.55c-3.95,-1.7 -7.296,-4.05 -10.038,-7.046c-2.741,-2.996 -4.845,-6.516 -6.312,-10.566c-1.467,-4.046 -2.204,-8.438 -2.204,-13.175l-0,-1.338Zm11.983,1.338c0,3.237 0.408,6.325 1.229,9.258c0.821,2.937 2.063,5.517 3.725,7.746c1.663,2.225 3.746,3.987 6.25,5.283c2.504,1.292 5.417,1.942 8.742,1.942c3.279,-0 6.162,-0.65 8.646,-1.942c2.479,-1.296 4.554,-3.058 6.216,-5.283c1.663,-2.229 2.904,-4.809 3.721,-7.746c0.821,-2.933 1.234,-6.021 1.234,-9.258l-0,-1.338c-0,-3.196 -0.421,-6.262 -1.263,-9.2c-0.842,-2.933 -2.096,-5.512 -3.758,-7.742c-1.663,-2.224 -3.734,-3.995 -6.217,-5.312c-2.483,-1.317 -5.383,-1.975 -8.708,-1.975c-3.325,0 -6.217,0.658 -8.679,1.975c-2.463,1.317 -4.521,3.088 -6.184,5.312c-1.662,2.23 -2.904,4.809 -3.725,7.742c-0.821,2.938 -1.229,6.004 -1.229,9.2l0,1.338Z" style="fill:#636162;fill-rule:nonzero;"/><rect x="132.292" y="1441.42" width="84.375" height="84.375" style="fill:#636162;"/><path d="M339.967,1527.76l-41.121,0l130.325,-761.091l40.621,-0l-129.825,761.091Z" style="fill:#636162;fill-rule:nonzero;"/></g></svg>